{
  "accessors": [
    {
      "bufferView": 2,
      "componentType": 5126,
      "count": 4427,
      "max": [
        0.7717170119285583,
        0.7717170119285583,
        1.0
      ],
      "min": [
        -0.7717170119285583,
        -0.7717170119285583,
        -1.0
      ],
      "type": "VEC3"
    },
    {
      "bufferView": 2,
      "byteOffset": 53124,
      "componentType": 5126,
      "count": 4427,
      "max": [
        0.9999427795410156,
        0.9999427795410156,
        1.0
      ],
      "min": [
        -0.9999427795410156,
        -0.9999427795410156,
        -1.0
      ],
      "type": "VEC3"
    },
    {
      "bufferView": 3,
      "componentType": 5126,
      "count": 4427,
      "max": [
        1.0,
        1.0,
        0.9999576807022095,
        1.0
      ],
      "min": [
        -0.8187476396560669,
        -0.9834562540054321,
        -0.9119569063186646,
        1.0
      ],
      "type": "VEC4"
    },
    {
      "bufferView": 1,
      "componentType": 5126,
      "count": 4427,
      "max": [
        0.9970970153808594,
        0.9966809749603271
      ],
      "min": [
        0.002902999985963106,
        0.003318999893963337
      ],
      "type": "VEC2"
    },
    {
      "bufferView": 0,
      "componentType": 5125,
      "count": 24576,
      "type": "SCALAR"
    }
  ],
  "asset": {
    "extras": {
      "author": "ayvlasov (https://sketchfab.com/ayvlasov)",
      "license": "CC-BY-NC-SA-4.0 (http://creativecommons.org/licenses/by-nc-sa/4.0/)",
      "source": "https://sketchfab.com/3d-models/egg-2018-wiki-407010d272e34955836ce57ad8f51db4",
      "title": "Egg 2018 Wiki"
    },
    "generator": "Sketchfab-12.67.0",
    "version": "2.0"
  },
  "bufferViews": [
    {
      "buffer": 0,
      "byteLength": 98304,
      "name": "floatBufferViews",
      "target": 34963
    },
    {
      "buffer": 0,
      "byteLength": 35416,
      "byteOffset": 98304,
      "byteStride": 8,
      "name": "floatBufferViews",
      "target": 34962
    },
    {
      "buffer": 0,
      "byteLength": 106248,
      "byteOffset": 133720,
      "byteStride": 12,
      "name": "floatBufferViews",
      "target": 34962
    },
    {
      "buffer": 0,
      "byteLength": 70832,
      "byteOffset": 239968,
      "byteStride": 16,
      "name": "floatBufferViews",
      "target": 34962
    }
  ],
  "buffers": [
    {
      "byteLength": 310800,
      "uri": "scene.bin"
    }
  ],
  "images": [
    {
      "uri": "textures/MaterialEgg_baseColor.jpeg"
    },
    {
      "uri": "textures/MaterialEgg_normal.png"
    }
  ],
  "materials": [
    {
      "doubleSided": true,
      "name": "MaterialEgg",
      "normalTexture": {
        "index": 1
      },
      "pbrMetallicRoughness": {
        "baseColorTexture": {
          "index": 0
        },
        "metallicFactor": 0.7250524556861734,
        "roughnessFactor": 0.1114255317352103
      }
    }
  ],
  "meshes": [
    {
      "name": "Object_0",
      "primitives": [
        {
          "attributes": {
            "NORMAL": 1,
            "POSITION": 0,
            "TANGENT": 2,
            "TEXCOORD_0": 3
          },
          "indices": 4,
          "material": 0,
          "mode": 4
        }
      ]
    }
  ],
  "nodes": [
    {
      "children": [
        1
      ],
      "matrix": [
        2.220446049250313e-16,
        -2.220446049250313e-16,
        1.0,
        0.0,
        1.0,
        4.930380657631324e-32,
        -2.220446049250313e-16,
        0.0,
        0.0,
        1.0,
        2.220446049250313e-16,
        0.0,
        1.3234889800848443e-23,
        -2.6469779601696886e-23,
        1.1920928955078125e-07,
        1.0
      ],
      "name": "Sketchfab_model"
    },
    {
      "children": [
        2
      ],
      "name": "egg_savior_norm.obj.cleaner.materialmerger.gles"
    },
    {
      "mesh": 0,
      "name": "Object_2"
    }
  ],
  "samplers": [
    {
      "magFilter": 9729,
      "minFilter": 9987,
      "wrapS": 10497,
      "wrapT": 10497
    }
  ],
  "scene": 0,
  "scenes": [
    {
      "name": "Sketchfab_Scene",
      "nodes": [
        0
      ]
    }
  ],
  "textures": [
    {
      "sampler": 0,
      "source": 0
    },
    {
      "sampler": 0,
      "source": 1
    }
  ]
}
